<svg xmlns="http://www.w3.org/2000/svg" width="21" height="24" viewBox="0 0 21 24">
    <path fill="#FFF" fill-rule="evenodd" d="M15.75 14.26H9a.75.75 0 1 0 0 1.498h6.75a.75.75 0 1 0 0-1.498zm0-3.746H9a.75.75 0 1 0 0 1.498h6.75a.75.75 0 1 0 0-1.498zM17.25 6c-.799 0-1.5-1.451-1.5-2.23V1.522L19.5 6h-2.25zm2.25 12c0 .764-.712 1.5-1.5 1.5H6.75c-.788 0-1.5-.736-1.5-1.5V3c0-.764.712-1.5 1.5-1.5h7.5c-.012 1.727 0 3.019 0 3.019 0 1.558 1.402 2.981 3 2.981h2.25V18zm-5.25 4.5H3c-.787 0-1.5-.736-1.5-1.5V6c0-.764.641-1.475 1.429-1.475L3.75 4.5V18c0 1.544 1.413 3 3 3h9c0 .764-.713 1.5-1.5 1.5zM15.75 0h-9c-1.587 0-3 1.456-3 3l-.867.02C1.297 3.02 0 4.456 0 6v15c0 1.544 1.413 3 3 3h11.25c1.587 0 3-1.456 3-3H18c1.587 0 3-1.456 3-3V6.018L15.75 0z"/>
</svg>
