<svg xmlns="http://www.w3.org/2000/svg" width="122" height="109" viewBox="0 0 122 109">
    <g fill="none" fill-rule="evenodd" stroke="#27B291" stroke-linecap="round" stroke-linejoin="round" stroke-width="2">
        <path d="M28.899 56.904H1l13.95 24.161zM42.849 81.065h-27.9l13.95 24.162z"/>
        <path d="M14.95 81.065h27.899l-13.95-24.16zM47.033 83.481l-13.95 24.162h27.9zM74.933 83.481l-13.95 24.162h27.9z"/>
        <path d="M60.983 107.643l13.95-24.162h-27.9zM79.117 81.066l13.95 24.162 13.95-24.162zM93.067 56.904l13.95 24.161 13.949-24.161zM107.016 81.065l-13.95-24.16-13.949 24.16zM93.067 52.069h27.899l-13.95-24.162zM79.117 27.907h27.9L93.066 3.746z"/>
        <path d="M107.016 27.907H79.117l13.95 24.162zM74.933 25.491L88.883 1.33h-27.9zM47.033 25.491L60.983 1.33h-27.9z"/>
        <path d="M60.983 1.33L47.033 25.49h27.9zM42.849 27.907L28.899 3.746l-13.95 24.161zM28.899 52.069l-13.95-24.162L1 52.07z"/>
        <path d="M14.95 27.907L28.9 52.07l13.949-24.162z"/>
    </g>
</svg>
