<svg xmlns="http://www.w3.org/2000/svg" width="800" height="84" viewBox="0 0 800 84">
    <g fill="#13BF99" fill-rule="evenodd">
        <path d="M304.594 83.78h4.463V.094h-4.463zM137.718.094c-23.11 0-41.843 18.734-41.843 41.843 0 23.11 18.733 41.844 41.843 41.844 23.11 0 41.844-18.735 41.844-41.844S160.828.094 137.718.094m0 4.463c20.612 0 37.38 16.77 37.38 37.38 0 20.611-16.768 37.38-37.38 37.38-20.612 0-37.38-16.769-37.38-37.38 0-20.61 16.768-37.38 37.38-37.38M245.718 79.317H205.41V44.17h40.31c9.69 0 17.574 7.883 17.574 17.574 0 9.691-7.884 17.574-17.575 17.574zm-5.578-74.76c9.69 0 17.574 7.884 17.574 17.574 0 9.69-7.884 17.575-17.574 17.575h-34.73V4.556h34.73zm11.912 36.087c6.082-3.927 10.125-10.75 10.125-18.513 0-12.152-9.886-22.037-22.037-22.037h-39.194V83.78h44.772c12.152 0 22.038-9.885 22.038-22.037 0-9.95-6.63-18.371-15.704-21.099zM504.945.094v39.611H446.92V.094h-4.463V83.78h4.463V44.169h58.024v39.612h4.463V.094zM757.464 79.317H736.82V4.557h20.644c20.611 0 37.38 16.769 37.38 37.38 0 20.61-16.769 37.38-37.38 37.38m0-79.223h-25.107V83.78h25.107c23.072 0 41.842-18.77 41.842-41.844 0-23.071-18.77-41.842-41.842-41.842M41.843 79.317c-20.611 0-37.38-16.77-37.38-37.38 0-20.611 16.769-37.38 37.38-37.38 16.727 0 30.922 11.044 35.68 26.222h4.647C77.286 13.089 61.087.094 41.843.094 18.733.094 0 18.828 0 41.936 0 65.046 18.733 83.78 41.843 83.78c19.244 0 35.443-12.995 40.327-30.685h-4.648C72.765 68.274 58.57 79.317 41.843 79.317M572.567.094c-23.11 0-41.845 18.734-41.845 41.843 0 23.11 18.735 41.844 41.845 41.844s41.842-18.735 41.842-41.844S595.676.094 572.567.094m0 4.463c20.611 0 37.38 16.77 37.38 37.38 0 20.611-16.769 37.38-37.38 37.38-20.612 0-37.38-16.769-37.38-37.38 0-20.61 16.768-37.38 37.38-37.38M669.2.094c-23.11 0-41.844 18.734-41.844 41.843 0 23.11 18.733 41.844 41.843 41.844 23.11 0 41.844-18.735 41.844-41.844S692.31.094 669.2.094m0 4.463c20.612 0 37.38 16.77 37.38 37.38 0 20.611-16.768 37.38-37.38 37.38-20.611 0-37.38-16.769-37.38-37.38 0-20.61 16.769-37.38 37.38-37.38M408.312.093v76.595L350.288.093h-4.463V83.78h4.463V7.187l58.024 76.593h4.463V.093z"/>
    </g>
</svg>
