<svg xmlns="http://www.w3.org/2000/svg" xmlns:xlink="http://www.w3.org/1999/xlink" width="24" height="24" viewBox="0 0 24 24">
    <defs>
        <path id="a" d="M0 23.405V.041h23.955v23.364z"/>
    </defs>
    <g fill="none" fill-rule="evenodd" transform="translate(0 .157)">
        <mask id="b" fill="#fff">
            <use xlink:href="#a"/>
        </mask>
        <path fill="#ff0707" d="M11.978.041C5.363.041 0 5.403 0 12.019 0 17.31 3.432 21.8 8.191 23.384c.599.111.818-.26.818-.576 0-.285-.01-1.23-.016-2.23-3.332.725-4.035-1.413-4.035-1.413-.545-1.384-1.33-1.753-1.33-1.753-1.087-.743.082-.728.082-.728 1.203.085 1.836 1.235 1.836 1.235 1.068 1.83 2.802 1.301 3.485.995.108-.774.418-1.302.761-1.602-2.66-.302-5.457-1.33-5.457-5.919 0-1.308.468-2.376 1.234-3.215-.124-.302-.534-1.52.116-3.17 0 0 1.006-.322 3.295 1.228.955-.265 1.98-.398 2.998-.403 1.018.005 2.043.138 3 .403 2.286-1.55 3.29-1.228 3.29-1.228.653 1.65.243 2.868.119 3.17.768.839 1.232 1.907 1.232 3.215 0 4.6-2.802 5.613-5.47 5.91.43.372.813 1.1.813 2.218 0 1.603-.013 2.893-.013 3.287 0 .319.215.692.822.575 4.757-1.586 8.185-6.074 8.185-11.364C23.956 5.403 18.593.04 11.978.04" mask="url(#b)"/>
    </g>
</svg>
