<svg xmlns="http://www.w3.org/2000/svg" xmlns:xlink="http://www.w3.org/1999/xlink" width="180" height="180" viewBox="0 0 180 180">
    <defs>
        <path id="a" d="M0 0h200v200H0z"/>
        <path id="c" d="M180 90c0 49.704-40.293 90-90 90-49.704 0-90-40.296-90-90C0 40.293 40.296 0 90 0c49.707 0 90 40.293 90 90z"/>
    </defs>
    <g fill="none" fill-rule="evenodd" transform="translate(-10 -10)">
        <mask id="b" fill="#fff">
            <use xlink:href="#a"/>
        </mask>
        <g mask="url(#b)">
            <g transform="translate(10 10)">
                <mask id="d" fill="#fff">
                    <use xlink:href="#c"/>
                </mask>
                <path stroke="#FFF" stroke-width="1.5" d="M179.25 90C179.25 40.707 139.293.75 90 .75 40.71.75.75 40.708.75 90c0 49.29 39.96 89.25 89.25 89.25 49.292 0 89.25-39.96 89.25-89.25z"/>
                <g stroke="#13BF99" stroke-linecap="round" stroke-linejoin="round" stroke-width="1.5" mask="url(#d)">
                    <path d="M16.2 49.354c-.913 6.546 1.367 9.932 0 13.093-1.368 3.16-2.964 8.802-1.597 12.641 1.367 3.837 3.42 12.19 5.242 12.417 1.823.224-1.367-9.03.457-6.095 1.824 2.932 1.824 7.3 5.015 10.308 3.19 3.009 7.522 2.557 10.94 5.492 3.419 2.935 6.837 7.225 10.028 6.773 0 0-.227 2.257-1.824 6.095-1.593 3.836-1.822 8.352.23 11.06 2.05 2.71 4.102 6.772 5.924 8.803 1.824 2.032 3.192 12.867 2.737 18.286-.456 5.417 2.05 17.606 7.749 20.315 5.697 2.709 0-1.356-1.139-4.74-1.14-3.384.88-11.287 3.631-12.415 2.75-1.13 5.257-5.643 7.309-8.804 2.05-3.161 7.293-4.515 8.889-8.353 1.595-3.837.912-8.352 1.822-10.383.912-2.032 3.42-6.547-2.051-9.256-5.469-2.708-7.748-1.354-7.977-3.837-.228-2.483-1.595-5.192-5.469-6.32-3.876-1.13-7.295-3.32-11.626-3.805-4.33-.484-5.242 2.903-7.522 1.096-2.278-1.805-4.1-3.612-5.014-5.87-.91-2.256-3.647-.903-3.418-2.256.227-1.355 3.875-5.192-.229-3.838-4.102 1.354-7.749.902-7.521-2.709.229-3.612 5.243-4.967 7.295-5.418 2.05-.451 3.645 2.032 6.154 3.612 2.506 1.58.226-2.257 1.595-4.966 1.367-2.709 6.61-2.483 7.293-6.32.684-3.838-.227-6.998 3.875-7.45 4.103-.45 8.434.226 8.89-1.807.455-2.029-4.787.678-5.015-1.805-.229-2.483 4.559-5.87 5.925-3.386 1.367 2.483 4.787 2.708 5.242 1.805.457-.902 0-2.483-1.594-6.32-1.596-3.838-3.191-2.707-4.559-6.997-1.367-4.288-3.647.227-5.925-2.032-2.28-2.256-5.015-6.998-5.472-2.934-.455 4.063-.455 6.32-2.507 9.48-2.05 3.16-2.961.678-4.786-1.355-1.822-2.03-5.926-4.062-4.558-5.868 1.367-1.806 2.736-6.547 4.786-5.193 2.052 1.356 5.242 1.356 4.787-.902-.456-2.257 0-3.162.91-4.29.913-1.13 4.104-3.16 4.104.904 0 4.063-.457 5.192 2.736 5.644 3.19.451 6.836.677 6.61-1.356-.23-2.032.912-1.58 0-4.966-.914-3.386-3.647-3.61-6.61-5.193-2.964-1.578-4.56-4.062-7.066-3.16-2.507.904-2.736 1.807-2.964 4.29-.227 2.485-1.595 3.387-2.507 2.258-.912-1.129.228-4.74-3.19-2.483-3.42 2.258-4.788 6.095-6.61 3.385-1.825-2.707 2.735-7.45-2.053-5.416-4.786 2.031-8.205 4.289-5.697 5.19 2.507.904 5.014 2.484 2.507 3.387-2.507.902-7.523-.677-9.345 1.129-1.825 1.805-6.837 10.835-6.837 10.835z"/>
                    <path d="M43.094 24.974c-.012 2.524.685 4.515 2.964 2.258 2.28-2.258 3.646-4.966 5.242-3.838 1.595 1.13 4.331.83 5.47.753 1.14-.076 1.367-3.461 4.559-3.01 3.19.452 2.051-.678 5.47-2.483 3.419-1.807 10.714-4.966 3.19-4.063-7.522.903-7.977-1.129-13.22 2.256-5.241 3.387-6.38 3.387-7.747 4.29-1.369.902-2.964-2.709-4.788 0-1.824 2.708-1.127 1.267-1.14 3.837zM70.446 17.977c-2.694 2.305-6.839 5.644-3.647 5.644 3.192 0 4.74-1.655 6.472.527 1.734 2.181 1.05 5.567 1.05 7.147s-.913 5.192 1.367 9.707c2.28 4.515 2.507 7.449 4.787 4.515 2.279-2.935 7.749-8.578 10.484-9.03 2.734-.453 5.47-1.58 6.838-3.838 1.367-2.257 0-4.446 2.28-6.06 2.278-1.614 1.822-3.646 2.507-6.13.683-2.482 6.837-2.482 4.102-3.835-2.735-1.356-7.75-2.258-13.676-1.583-5.925.678-17.55-1.353-22.564 2.936zM45.374 87.728c-1.45 2.342-.684 2.485.912 2.936 1.594.45-.684 3.16 1.139 3.386 1.824.225 5.926 1.354 7.066 0 1.14-1.354-1.823-.826-3.875-2.333-2.052-1.504-4.213-5.652-5.242-3.989zM155.69 124.523c-2.455 1.218-1.367 3.16-3.646 4.516-2.28 1.354-1.368 1.806-2.05 4.966-.685 3.16.227 4.966 1.822 2.483 1.596-2.483 6.61-13.318 3.875-11.965zM157.742 76.217c-.685.678-1.823-3.16-2.507-4.968-.685-1.805-.667-4.943 1.257-6.688 2.396-2.177 1.25 2.851 1.25 5.561 0 2.709.684 5.416 0 6.095zm-7.98-6.998c-1.596-.902-4.556 0-8.203 1.129-3.648 1.128-.73-2.511.912-4.967 1.467-2.194.683.678 3.875.904 3.191.225 5.014 3.837 3.416 2.934zm-5.24 7.676c-.228 1.805.684 4.738-4.33 3.612-5.015-1.13-5.015-3.84-7.066-1.807-2.05 2.03-4.56 3.837-7.522.676-2.962-3.16-2.507-4.062-4.102-4.288-1.137-.16-4.925-.998-8.085-.088a4.94 4.94 0 0 0 .79-.588c2.28-2.032 1.824-2.71 4.33-4.968 2.508-2.257 4.332-4.288 6.155-2.257 1.823 2.032 5.699 2.484 4.331 4.74-1.367 2.258-.456 3.61 1.14 2.258 1.594-1.354 3.875-2.258 2.28-4.063-1.597-1.805-3.192-6.546-.913-3.386 2.28 3.16 2.963 4.74 4.332 6.546 1.367 1.806 2.735 2.935 3.19 1.806.455-1.129-.228-3.612.455-4.064.685-.45 0 3.839 2.052 4.064 2.05.226 3.192 0 2.963 1.807zm24.16 9.706C168 82.763 162.985 48 162.985 48s-13.448-8.578-15.727-6.773c-2.28 1.807-6.156 1.534-5.699-.249.457-1.781 3.42-1.33-1.596-4.717-5.015-3.386-5.925-6.321-9.8-2.032-3.875 4.29-4.787 7.902-7.066 9.03-2.28 1.128-4.104 4.741-1.595 5.643 2.507.903 2.735 0 4.786 1.805 2.05 1.807 4.787 1.356 5.242.227.456-1.129.912-4.74 1.14-6.095.228-1.354 2.546-5.87 2.298-2.257-.247 3.611 3.172 3.611.894 6.095-2.281 2.483-.914 4.515-5.471 4.967-4.558.45-4.787-2.258-7.294-.903-2.507 1.354-2.28 2.256-3.192 3.611-.912 1.353-5.698 4.063-5.698 4.063s-3.874-1.355-2.05 1.13c1.823 2.482 3.418 5.416 1.823 5.642-1.596.225-5.926-2.258-5.926.45 0 2.71-.684 5.645 1.14 6.322 1.286.478 2.122 1.514 3.303 1.37-.915.39-1.748.958-2.391 1.791-1.774 2.295-.685 6.32-4.332 7.675-3.646 1.354-3.646 2.934-4.33 5.868-.683 2.937 0 10.384.911 11.062.911.677 2.507 6.32 6.383 5.868 3.875-.45 7.977-.626 9.345.025 1.367.653 3.646-1.378 4.33 3.814.684 5.192 2.279 5.868 3.191 8.578.91 2.708-.455 8.352 0 11.737.455 3.387 3.647 9.256 3.647 12.19 0 2.934 3.42 4.288 5.242 3.16 1.824-1.128 5.699-3.385 7.294-6.997 1.596-3.612 1.596-5.417 4.103-10.16 2.506-4.74 1.823-8.125 2.963-11.737 1.14-3.612 3.881-6.095 7.639-10.157 3.757-4.063 3.08-6.32 0-6.095-3.08.225-5.136-2.709-6.73-6.32-1.592-3.614-3.416-12.641-2.049-9.709 1.368 2.936 4.102 11.063 6.837 12.417 2.736 1.354 7.75-2.303 8.89-3.633 1.139-1.333.684-5.17-2.28-6.752-2.963-1.58-1.139-2.934 1.825-1.128 2.961 1.806 6.38 3.611 5.697-.225z"/>
                    <path d="M113.751 48.677c-1.397.415-2.507 3.16-1.823 4.515.685 1.354-.684-.678-2.507.452-1.824 1.128-4.533 4.289-2.038 4.513 2.494.226 2.038-1.806 4.316-.902 2.281.902 4.788.678 4.788-1.58s-.456-7.676-2.736-6.998zM98.937 38.292c-1.373.195-1.825 3.612 1.14 4.064 2.963.451 8.27-.679 6.298-2.484-1.969-1.805-4.247-2.03-7.438-1.58z"/>
                </g>
            </g>
        </g>
    </g>
</svg>
