<svg xmlns="http://www.w3.org/2000/svg" xmlns:xlink="http://www.w3.org/1999/xlink" width="147" height="182" viewBox="0 0 147 182">
    <defs>
        <path id="a" d="M0 0h200v200H0z"/>
    </defs>
    <g fill="none" fill-rule="evenodd" transform="translate(-27 -9)">
        <mask id="b" fill="#fff">
            <use xlink:href="#a"/>
        </mask>
        <use fill="#122028" fill-opacity="0" xlink:href="#a"/>
        <g stroke="#FFF" stroke-width="1.5" mask="url(#b)">
            <path d="M172.432 64.684V36.536s-48.325-2.998-72.2-26.536C76.36 33.538 28.036 36.536 28.036 36.536v28.148S24.095 153.427 100.233 190c76.137-36.573 72.199-125.316 72.199-125.316"/>
            <path d="M161.567 69.981V46.056s-41.076-2.549-61.37-22.556C79.906 43.507 38.83 46.056 38.83 46.056V69.98s-3.348 75.432 61.369 106.519c64.716-31.087 61.369-106.519 61.369-106.519"/>
        </g>
        <g stroke="#13BF99" stroke-linecap="round" stroke-width="1.5" mask="url(#b)">
            <path d="M116.58 88.387V76.413C116.58 67.35 109.07 60 99.807 60c-9.264 0-16.774 7.35-16.774 16.413v11.974M122.172 140H77.441A3.451 3.451 0 0 1 74 136.56V91.827a3.451 3.451 0 0 1 3.44-3.44h44.732a3.451 3.451 0 0 1 3.44 3.44v44.731a3.451 3.451 0 0 1-3.44 3.441z"/>
            <path d="M107.548 109.5c0-4.535-3.755-8.21-8.387-8.21-4.631 0-8.387 3.675-8.387 8.21 0 2.676 1.329 5.03 3.355 6.529v8.626c0 2.053 1.714 3.732 3.811 3.732h2.442c2.097 0 3.812-1.68 3.812-3.732v-8.626c2.026-1.499 3.354-3.853 3.354-6.53z"/>
        </g>
    </g>
</svg>
