<svg xmlns="http://www.w3.org/2000/svg" xmlns:xlink="http://www.w3.org/1999/xlink" width="200" height="200" viewBox="0 0 200 200">
    <defs>
        <path id="a" d="M0 0h200v200H0z"/>
    </defs>
    <g fill="none" fill-rule="evenodd">
        <mask id="b" fill="#fff">
            <use xlink:href="#a"/>
        </mask>
        <use fill="#122028" fill-opacity="0" xlink:href="#a"/>
        <g stroke-width="1.5" mask="url(#b)">
            <path stroke="#FFF" d="M132.583 66.667C132.583 30.262 103.072.75 66.667.75S.75 30.262.75 66.667s29.512 65.916 65.917 65.916 65.916-29.511 65.916-65.916z"/>
            <path stroke="#FFF" d="M124.25 66.666c0-31.801-25.782-57.583-57.583-57.583-31.802 0-57.584 25.782-57.584 57.583s25.782 57.584 57.584 57.584c31.8 0 57.583-25.783 57.583-57.584z"/>
            <path stroke="#13BF99" stroke-linecap="round" stroke-linejoin="round" d="M76.456 90.767c-1.535 1.258-3.158 1.829-5.208 2.079v-20.16c2.562 1.091 4.34 2.329 5.698 3.714 2.048 2.083 3.073 4.015 3.073 7.102 0 3.333-1.188 5.319-3.563 7.265zM58.191 56.902c-2.318-1.97-3.48-3.775-3.48-6.727 0-3.323 1.072-5.362 3.216-7.427 1.252-1.206 2.831-2.05 4.72-2.55v19.43c-1.83-.85-3.318-1.76-4.456-2.726zm25.638 13.68c-2.963-3.12-7.165-6.074-12.581-7.924v-22.72c2.098.372 3.714 1.17 5.187 2.737 2.306 2.454 3.46 5.669 3.46 9.642h8.355l.081-.28c.138-5.372-1.069-10.747-4.933-14.816-3.036-3.196-7.298-5.133-12.15-5.819V25h-8.6v6.485c-4.044.686-7.477 2.334-10.29 4.957-3.81 3.548-6.37 8.623-6.37 13.916 0 5.044 2.424 9.89 5.958 13.22 2.735 2.578 6.31 4.662 10.702 6.27v22.587c-2.109-.55-3.994-1.479-5.642-2.808-2.815-2.267-3.562-4.262-3.562-8.612h-8.357l-.081.28c-.137 6.149 2.081 11.065 6.654 14.745 3.302 2.658 6.967 4.35 10.988 5.09v7.203h8.6v-7.008c4.612-.548 8.487-2.119 11.596-4.75 3.933-3.323 5.897-7.717 5.897-13.183 0-5.094-1.637-9.365-4.912-12.81z"/>
        </g>
        <g stroke-width="1.5" mask="url(#b)">
            <path stroke="#FFF" d="M79.25 168.333c0-17.075-13.842-30.916-30.917-30.916-17.075 0-30.916 13.841-30.916 30.916 0 17.075 13.841 30.917 30.916 30.917 17.075 0 30.917-13.842 30.917-30.917z"/>
            <path stroke="#FFF" d="M72.583 168.333c0-13.392-10.857-24.25-24.25-24.25-13.392 0-24.25 10.858-24.25 24.25s10.858 24.25 24.25 24.25c13.393 0 24.25-10.858 24.25-24.25z"/>
            <path stroke="#13BF99" stroke-linecap="round" stroke-linejoin="round" d="M51.86 180.245c-4.01 0-6.936-2.93-8.184-7.12h11.94v-3.9H43.03a18.881 18.881 0 0 1-.024-.892c0-.3.01-.597.024-.891h12.586v-3.9h-11.94c1.248-4.191 4.175-7.12 8.185-7.12 2.678 0 5.103 1.306 6.872 3.423l2.934-2.99c-2.499-3.193-6.025-5.188-9.937-5.188-6.204 0-10.828 5.007-12.3 11.876H35v3.899h3.95a23.01 23.01 0 0 0 0 1.783H35v3.9h4.43C40.902 179.992 45.526 185 51.73 185c3.912 0 7.438-1.994 9.937-5.188l-2.934-2.99c-1.769 2.116-4.194 3.423-6.872 3.423z"/>
        </g>
        <g stroke-width="1.5" mask="url(#b)">
            <path stroke="#FFF" d="M199.25 150c0-22.598-18.319-40.917-40.917-40.917-22.597 0-40.916 18.32-40.916 40.917 0 22.598 18.319 40.917 40.916 40.917 22.598 0 40.917-18.32 40.917-40.917z"/>
            <path stroke="#FFF" d="M190.917 150c0-17.995-14.589-32.583-32.585-32.583-17.994 0-32.582 14.588-32.582 32.582 0 17.995 14.589 32.584 32.582 32.584 17.996 0 32.585-14.589 32.585-32.584z"/>
            <path stroke="#13BF99" stroke-linecap="round" stroke-linejoin="round" d="M173.73 130h-7.48l-7.719 13.998L150.812 130h-7.479l11.595 20.305h-4.738v5.243h4.802v2.738h-4.802v5.243h4.802V170h7.08v-6.471h4.801v-5.243h-4.802v-2.738h4.802v-5.243h-4.739z"/>
        </g>
    </g>
</svg>
