<svg xmlns="http://www.w3.org/2000/svg" width="183" height="162" viewBox="0 0 183 162">
    <g fill="none" fill-rule="evenodd" stroke-linecap="round" stroke-linejoin="round" stroke-width="1.5">
        <path stroke="#FFF" d="M.75 90.75h20"/>
        <path stroke="#13BF99" d="M160.75 90.75h20"/>
        <path stroke="#FFF" d="M2.117 75.121l19.696 3.474"/>
        <path stroke="#13BF99" d="M159.686 102.905l19.696 3.473"/>
        <path stroke="#FFF" d="M6.178 59.968l18.794 6.84M12.808 45.75l17.32 10M21.806 32.898l15.321 12.856M32.9 21.806l12.854 15.32M45.75 12.808l10 17.32M59.968 6.178l6.84 18.793M75.121 2.117l3.474 19.696M90.75.75v20M106.378 2.117l-3.473 19.696M121.532 6.178l-6.84 18.793M135.75 12.808l-10 17.32M148.601 21.806l-12.856 15.32M159.694 32.898l-15.321 12.856M168.692 45.75l-17.32 10"/>
        <path stroke="#13BF99" d="M175.322 59.968l-18.794 6.84M179.383 75.121l-19.696 3.474"/>
        <path stroke="#FFF" d="M21.813 102.905l-19.696 3.473"/>
        <g>
            <path stroke="#FFF" d="M88.15 120.778h-14.4M88.15 125.778h-23.4M88.15 135.778h-41.4M88.15 145.778h-59.4M88.15 155.778h-77.4M88.15 130.778h-32.4M88.15 140.778h-50.4M88.15 150.778h-68.4M88.15 160.778H1.75"/>
            <path stroke="#13BF99" d="M95.35 120.778h14.4M95.35 125.778h23.4M95.35 135.778h41.4M95.35 145.778h59.4M95.35 155.778h77.4M95.35 130.778h32.4M95.35 140.778h50.4M95.35 160.778h86.4M95.35 150.778h68.4"/>
        </g>
        <g>
            <path stroke="#FFF" d="M94 95.442c-5.776 1.489-11.665-1.986-13.154-7.762-1.489-5.777 1.987-11.666 7.762-13.155 5.776-1.488 11.665 1.987 13.154 7.764 1.49 5.775-1.986 11.665-7.762 13.153z"/>
            <path stroke="#13BF99" d="M150.367 68.413L103.84 76.59l2.496 9.683z"/>
        </g>
    </g>
</svg>
