<svg xmlns="http://www.w3.org/2000/svg" xmlns:xlink="http://www.w3.org/1999/xlink" width="181" height="161" viewBox="0 0 181 161">
    <defs>
        <path id="a" d="M0 0h200v200H0z"/>
    </defs>
    <g fill="none" fill-rule="evenodd" transform="translate(-10 -19)">
        <mask id="b" fill="#fff">
            <use xlink:href="#a"/>
        </mask>
        <use fill="#122028" fill-opacity="0" xlink:href="#a"/>
        <g stroke="#FFF" stroke-linecap="round" stroke-linejoin="round" stroke-width="1.5" mask="url(#b)">
            <path d="M169.108 59.741H128.6l20.253 35.081zM128.6 59.741h40.507l-20.253-35.077zM148.854 94.821h40.507l-20.253-35.08zM100.225 20.022l-20.253 35.08h40.506zM79.972 55.102l20.253-35.081H59.718zM120.478 55.102l20.254-35.081h-40.507zM31.251 59.846l20.253 35.077 20.254-35.077zM51.504 94.923L31.251 59.846 10.998 94.923z"/>
            <path d="M71.758 59.846l-20.254-35.08-20.253 35.08zM100.161 179.18l20.253-35.078H79.908zM120.414 144.102l-20.253 35.078h40.507z"/>
            <path d="M79.908 144.102L59.654 179.18h40.507zM169.135 139.358l-20.253-35.08-20.253 35.08z"/>
            <path d="M148.882 104.278l20.253 35.08 20.253-35.08zM128.628 139.358l20.254 35.08 20.253-35.08zM31.251 139.51h40.507l-20.254-35.081zM71.758 139.51H31.25l20.253 35.08z"/>
            <path d="M51.504 104.429H10.998l20.253 35.08z"/>
        </g>
        <g stroke="#13BF99" stroke-width="1.5" mask="url(#b)">
            <path stroke-linecap="round" d="M68 80h18.333M68 116.667h18.333M77.167 80v36.667M108 107.808c0 4.873-3.623 8.859-8.057 8.859h-.553c-4.43 0-8.057-3.986-8.057-8.859V88.862C91.333 83.99 94.96 80 99.39 80h.553c4.434 0 8.057 3.99 8.057 8.862"/>
            <path d="M123.277 116.667h-.557c-4.43 0-8.053-3.986-8.053-8.859V88.862c0-4.873 3.623-8.862 8.053-8.862h.557c4.43 0 8.056 3.99 8.056 8.862v18.946c0 4.873-3.626 8.859-8.056 8.859z"/>
        </g>
    </g>
</svg>
