<svg xmlns="http://www.w3.org/2000/svg" width="24" height="22" viewBox="0 0 24 22">
    <path fill="#13BF99" fill-rule="evenodd" d="M8.567 10.436h1.638l-.82-2.389-.818 2.39zm12.072 2.307c-.336.253-.708.106-.958-.224l-1.592-2.105-.451.45v1.207c0 .329-.208.755-.63.755-.422 0-.63-.342-.63-.755V7.544c0-.413.208-.754.63-.754.422 0 .63.426.63.754v1.542l2.04-2.035c.292-.292.68-.387.979-.09.298.299.144.746-.09.979l-1.579 1.577 1.698 2.245c.199.262.29.727-.047.98zm-5.332.083h-1.953a.849.849 0 0 1-.102-.007.58.58 0 0 1-.087.007c-.422 0-.63-.342-.63-.755V7.544c0-.412.208-.754.63-.754.422 0 .63.426.63.754v4.024h1.512c.414 0 .756.208.756.629 0 .421-.427.629-.756.629zm-3.653 0c-.506.185-.815-.418-.882-.566-.067-.149-.216-.629-.216-.629H8.198s-.205.65-.324.88c-.119.23-.532.437-.882.252-.35-.186-.334-.695-.252-.88.082-.186 1.397-3.838 1.575-4.235.178-.396.484-.858 1.07-.858.588 0 .846.473 1.009.858.162.386 1.512 4.02 1.575 4.235.062.215.19.757-.315.943zm-5.859-.755c0 .329-.208.755-.63.755-.422 0-.63-.342-.63-.755V7.984h-1.07c-.301 0-.693-.178-.693-.628s.382-.566.63-.566h3.527c.217 0 .63.232.63.629 0 .396-.463.565-.693.565h-1.07v4.087zM12 .001C5.373.044 0 4.302 0 9.51c0 3.259 2.103 6.117 5.3 7.79-.144 1.483-2.202 3.954-2.276 4.013-.086.067-.491.439-.063.503.449.06 5.055-1.643 6.809-3.103.722.102 1.468.153 2.23.148 6.627-.044 12-4.302 12-9.51C24 4.141 18.627-.045 12 0z"/>
</svg>
