<svg version="1.1" fill="#13bf99" xmlns="http://www.w3.org/2000/svg" xmlns:xlink="http://www.w3.org/1999/xlink" x="0px" y="0px" viewBox="0 0 104.3 99.4" enable-background="new 0 0 104.3 99.4" xml:space="preserve" width="28" height="28">
<path d="M101.7,42.7c0-22.1-22.2-40.2-49.5-40.2c-27.3,0-49.5,18-49.5,40.2c0,19.9,17.6,36.5,41.4,39.6c1.6,0.3,3.8,1.1,4.4,2.4c0.5,1.3,0.3,3.2,0.2,4.5c0,0-0.6,3.5-0.7,4.2c-0.2,1.3-1,4.9,4.3,2.7c5.3-2.2,28.5-16.8,38.9-28.7h0C98.2,59.6,101.7,51.6,101.7,42.7z M34.7,54.5c0,0.5-0.4,1-1,1H19.9h0c-0.3,0-0.5-0.1-0.7-0.3c0,0,0,0,0,0c0,0,0,0,0,0c-0.2-0.2-0.3-0.4-0.3-0.7v0V33c0-0.5,0.4-1,1-1h3.5c0.5,0,1,0.4,1,1v17.1h9.4c0.5,0,1,0.4,1,1V54.5z M43.1,54.5c0,0.5-0.4,1-1,1h-3.5c-0.5,0-1-0.4-1-1V33c0-0.5,0.4-1,1-1h3.5c0.5,0,1,0.4,1,1V54.5z M67,54.5c0,0.5-0.4,1-1,1h-3.5c-0.1,0-0.2,0-0.2,0c0,0,0,0,0,0c0,0,0,0-0.1,0c0,0,0,0,0,0c0,0,0,0,0,0c0,0,0,0,0,0c0,0,0,0,0,0c0,0,0,0-0.1,0c0,0,0,0,0,0c-0.1-0.1-0.2-0.1-0.2-0.2l-9.9-13.4v12.8c0,0.5-0.4,1-1,1h-3.5c-0.5,0-1-0.4-1-1V33c0-0.5,0.4-1,1-1h3.5c0,0,0,0,0,0c0,0,0,0,0.1,0c0,0,0,0,0.1,0c0,0,0,0,0,0c0,0,0,0,0.1,0c0,0,0,0,0,0c0,0,0,0,0.1,0c0,0,0,0,0,0c0,0,0,0,0.1,0c0,0,0,0,0,0c0,0,0,0,0.1,0c0,0,0,0,0,0c0,0,0,0,0.1,0c0,0,0,0,0,0c0,0,0,0,0.1,0c0,0,0,0,0,0c0,0,0,0,0.1,0.1c0,0,0,0,0,0c0,0,0.1,0.1,0.1,0.1l9.9,13.3V33c0-0.5,0.4-1,1-1H66c0.5,0,1,0.4,1,1V54.5z M86.1,36.4c0,0.5-0.4,1-1,1h-9.4v3.6h9.4c0.5,0,1,0.4,1,1v3.5c0,0.5-0.4,1-1,1h-9.4v3.6h9.4c0.5,0,1,0.4,1,1v3.5c0,0.5-0.4,1-1,1H71.3h0c-0.3,0-0.5-0.1-0.7-0.3c0,0,0,0,0,0c0,0,0,0,0,0c-0.2-0.2-0.3-0.4-0.3-0.7v0V33v0c0-0.3,0.1-0.5,0.3-0.7c0,0,0,0,0,0c0,0,0,0,0,0c0.2-0.2,0.4-0.3,0.7-0.3h0h13.9c0.5,0,1,0.4,1,1V36.4z"/>
</svg>
