<svg xmlns="http://www.w3.org/2000/svg" width="800" height="265" viewBox="0 0 800 265">
    <g fill="none" fill-rule="evenodd">
        <g fill="#13BF99">
            <path d="M304.594 264.78h4.463v-83.686h-4.463zM137.718 181.094c-23.11 0-41.843 18.734-41.843 41.843 0 23.11 18.733 41.844 41.843 41.844 23.11 0 41.844-18.735 41.844-41.844s-18.734-41.843-41.844-41.843m0 4.463c20.612 0 37.38 16.77 37.38 37.38 0 20.611-16.768 37.38-37.38 37.38-20.612 0-37.38-16.769-37.38-37.38 0-20.61 16.768-37.38 37.38-37.38M245.718 260.317H205.41V225.17h40.31c9.69 0 17.574 7.883 17.574 17.574 0 9.691-7.884 17.574-17.575 17.574zm-5.578-74.76c9.69 0 17.574 7.884 17.574 17.574 0 9.69-7.884 17.575-17.574 17.575h-34.73v-35.15h34.73zm11.912 36.087c6.082-3.927 10.125-10.75 10.125-18.513 0-12.152-9.886-22.037-22.037-22.037h-39.194v83.686h44.772c12.152 0 22.038-9.885 22.038-22.037 0-9.95-6.63-18.371-15.704-21.099zM504.945 181.094v39.611H446.92v-39.611h-4.463v83.687h4.463v-39.612h58.024v39.612h4.463v-83.687zM757.464 260.317H736.82v-74.76h20.644c20.611 0 37.38 16.769 37.38 37.38 0 20.61-16.769 37.38-37.38 37.38m0-79.223h-25.107v83.686h25.107c23.072 0 41.842-18.77 41.842-41.844 0-23.071-18.77-41.842-41.842-41.842M41.843 260.317c-20.611 0-37.38-16.77-37.38-37.38 0-20.611 16.769-37.38 37.38-37.38 16.727 0 30.922 11.044 35.68 26.222h4.647c-4.884-17.69-21.083-30.685-40.327-30.685C18.733 181.094 0 199.828 0 222.936c0 23.11 18.733 41.844 41.843 41.844 19.244 0 35.443-12.995 40.327-30.685h-4.648c-4.757 15.179-18.952 26.222-35.679 26.222M572.567 181.094c-23.11 0-41.845 18.734-41.845 41.843 0 23.11 18.735 41.844 41.845 41.844s41.842-18.735 41.842-41.844-18.733-41.843-41.842-41.843m0 4.463c20.611 0 37.38 16.77 37.38 37.38 0 20.611-16.769 37.38-37.38 37.38-20.612 0-37.38-16.769-37.38-37.38 0-20.61 16.768-37.38 37.38-37.38M669.2 181.094c-23.11 0-41.844 18.734-41.844 41.843 0 23.11 18.733 41.844 41.843 41.844 23.11 0 41.844-18.735 41.844-41.844s-18.734-41.843-41.844-41.843m0 4.463c20.612 0 37.38 16.77 37.38 37.38 0 20.611-16.768 37.38-37.38 37.38-20.611 0-37.38-16.769-37.38-37.38 0-20.61 16.769-37.38 37.38-37.38M408.312 181.093v76.595l-58.024-76.595h-4.463v83.687h4.463v-76.593l58.024 76.593h4.463v-83.687z"/>
        </g>
        <path fill="#13BF99" d="M356.725 77.322H318.07l19.327 33.474z"/>
        <path fill="#71D9C2" d="M376.051 110.797h-38.653l19.327 33.474z"/>
        <path fill="#42CCAD" d="M337.398 110.797h38.653l-19.327-33.474z"/>
        <path fill="#13BF99" d="M381.849 114.145l-19.326 33.474h38.652z"/>
        <path fill="#76C5B4" d="M420.502 114.145l-19.327 33.474h38.653z"/>
        <path fill="#42CCAD" d="M401.175 147.62l19.328-33.475h-38.654z"/>
        <path fill="#13BF99" d="M426.3 110.798l19.326 33.474 19.327-33.474z"/>
        <path fill="#71D9C2" d="M445.627 77.322l19.326 33.474 19.327-33.474z"/>
        <path fill="#42CCAD" d="M464.953 110.797l-19.326-33.474-19.327 33.474z"/>
        <path fill="#13BF99" d="M445.627 70.623h38.653l-19.327-33.474z"/>
        <path fill="#71D9C2" d="M426.3 37.148h38.653L445.626 3.674z"/>
        <path fill="#42CCAD" d="M464.953 37.148H426.3l19.327 33.474z"/>
        <path fill="#13BF99" d="M420.502 33.802L439.828.326h-38.653z"/>
        <path fill="#71D9C2" d="M381.849 33.802L401.175.326h-38.652z"/>
        <path fill="#42CCAD" d="M401.175.326L381.85 33.8h38.654z"/>
        <path fill="#13BF99" d="M376.051 37.148L356.725 3.674l-19.327 33.474z"/>
        <path fill="#71D9C2" d="M356.725 70.623l-19.327-33.474-19.327 33.474z"/>
        <path fill="#42CCAD" d="M337.398 37.148l19.326 33.474 19.327-33.474z"/>
    </g>
</svg>
