<svg xmlns="http://www.w3.org/2000/svg" width="152" height="102" viewBox="0 0 152 102">
    <g fill="none" fill-rule="evenodd" stroke-width="1.5">
        <path stroke="#FFF" stroke-linecap="round" d="M1 18.5h148.75"/>
        <path stroke="#FFF" d="M148 101H4c-1.65 0-3-1.286-3-2.857V3.857C1 2.286 2.35 1 4 1h144c1.65 0 3 1.286 3 2.857v94.286c0 1.571-1.35 2.857-3 2.857z"/>
        <path stroke="#FFF" stroke-linecap="round" d="M17.25 9.75a3.75 3.75 0 1 1-7.5 0 3.75 3.75 0 0 1 7.5 0zM29.75 9.75a3.75 3.75 0 1 1-7.499.001 3.75 3.75 0 0 1 7.499-.001zM42.25 9.75a3.75 3.75 0 1 1-7.499.001 3.75 3.75 0 0 1 7.499-.001zM9.75 26h37.5M9.75 36h37.5M9.75 54.75h37.5M9.75 64.75h37.5M9.75 44.75h37.5M9.75 74.75h37.5M9.75 93.5h37.5M9.75 83.5h37.5"/>
        <path stroke="#13BF99" stroke-linecap="round" d="M91.865 63.5h-31.73a2.892 2.892 0 0 1-2.885-2.885v-31.73A2.893 2.893 0 0 1 60.135 26h31.73a2.893 2.893 0 0 1 2.885 2.885v31.73a2.892 2.892 0 0 1-2.885 2.885zM138.115 93.5h-31.73a2.892 2.892 0 0 1-2.885-2.885v-31.73A2.893 2.893 0 0 1 106.385 56h31.73A2.893 2.893 0 0 1 141 58.885v31.73a2.892 2.892 0 0 1-2.885 2.885z"/>
        <path stroke="#FFF" stroke-linecap="round" d="M57.25 74.75h37.5M103.5 26H141M57.25 83.5h37.5M103.5 34.75H141M57.25 93.5h37.5M103.5 44.75H141"/>
    </g>
</svg>
