<svg xmlns="http://www.w3.org/2000/svg" xmlns:xlink="http://www.w3.org/1999/xlink" width="99" height="120" viewBox="0 0 99 120">
    <defs>
        <path id="a" d="M0 0h120v120H0z"/>
    </defs>
    <g fill="none" fill-rule="evenodd" transform="translate(-11)">
        <mask id="b" fill="#fff">
            <use xlink:href="#a"/>
        </mask>
        <use fill="#122028" fill-opacity="0" xlink:href="#a"/>
        <g mask="url(#b)">
            <g transform="translate(25 49)">
                <g stroke="#13BF99" stroke-linecap="round" stroke-linejoin="round">
                    <path stroke-width="1.103" d="M54.382 24.051H42.896L48.639 34z"/>
                    <path stroke-width="1.5" d="M42.896 24.051h11.486l-5.743-9.947zM48.639 33.999h11.486l-5.743-9.948zM34.85 12.788l-5.744 9.948h11.486zM29.106 22.735l5.743-9.947H23.363z"/>
                    <path stroke-width="1.5" d="M40.592 22.735l5.744-9.947H34.849zM15.29 24.08l5.744 9.947 5.743-9.946z"/>
                    <path stroke-width="1.5" d="M21.034 34.027l-5.743-9.946-5.743 9.946zM26.777 24.08l-5.743-9.947-5.743 9.948zM34.831 57.92l5.743-9.947H29.088z"/>
                    <path stroke-width="1.5" d="M40.574 47.973l-5.743 9.947h11.486z"/>
                    <path stroke-width="1.5" d="M29.088 47.973l-5.743 9.947h11.486zM54.39 46.628l-5.743-9.948-5.743 9.948z"/>
                    <path stroke-width="1.5" d="M48.647 36.68l5.743 9.948 5.743-9.948zM42.904 46.628l5.743 9.947 5.743-9.947zM15.29 46.67h11.487l-5.743-9.947zM26.777 46.67H15.291l5.743 9.948z"/>
                    <path stroke-width="1.5" d="M21.034 36.723H9.548l5.743 9.948z"/>
                </g>
                <circle cx="35" cy="35" r="35" stroke="#FFF" stroke-width="1.5"/>
            </g>
        </g>
        <path stroke="#FFF" stroke-linecap="round" stroke-width="1.5" d="M58.33 5.224l-4.232 9.314c-1.47.248-13.098 2.2-13.098 2.2s8.552 8.47 9.635 9.541L48.585 40l11.65-6.64c1.331.703 11.834 6.276 11.834 6.276s-2.159-12.113-2.434-13.648C70.688 24.884 79 16.153 79 16.153L65.841 14.36 59.795 2 58.33 5.224z" mask="url(#b)"/>
        <path stroke="#FFF" stroke-width="1.5" d="M96.87 39.36l-.004-.001a1.509 1.509 0 0 0-.302-.092l-.11-.028c-3.279-1.105-5.497-3.575-6.829-6.96-.61-1.552-.998-3.206-1.207-4.867a19.075 19.075 0 0 1-.167-2.512c0-.686.441-1.13 1.076-1.405.306-.133.598-.205.814-.237l.11-.008h16.497l.11.008c.216.032.509.104.814.236.635.276 1.077.72 1.077 1.39v.033c.007.584-.035 1.447-.167 2.495-.21 1.661-.596 3.315-1.207 4.867-1.332 3.385-3.55 5.855-6.829 6.96l-.11.028a1.51 1.51 0 0 0-.305.093v5.456c0-.043.034.033.246.223l.107.118c.734 1.011 2.333 1.887 5.11 2.41.054.004.11.012.168.023l.097.02c.064.013.118.027.156.037l.065.021a1.594 1.594 0 0 1 1.048 1.488c0 .89-.737 1.594-1.631 1.594H91.503c-.894 0-1.63-.704-1.63-1.594 0-.67.425-1.254 1.11-1.508.037-.01.091-.024.155-.039l.098-.02c.06-.01.115-.018.17-.023 2.614-.492 4.194-1.302 4.99-2.254l.094-.095c.2-.167.313-.312.367-.428.015-.031.022-.067.013.027v-5.455z" mask="url(#b)"/>
        <g stroke="#FFF" stroke-width="1.5" mask="url(#b)">
            <path d="M11.75 29.75h17.5v21.5h-17.5zM14.75 29.25h11.5v-3.5h-11.5zM14.75 25.25h2.5v-3.5h-2.5z"/>
            <path d="M14.75 36.25h3.5v-3.5h-3.5zM14.75 42.25h3.5v-3.5h-3.5zM22.75 36.25h3.5v-3.5h-3.5zM22.75 42.25h3.5v-3.5h-3.5zM14.75 48.25h3.5v-3.5h-3.5zM22.75 48.25h3.5v-3.5h-3.5z"/>
        </g>
    </g>
</svg>
