<svg xmlns="http://www.w3.org/2000/svg" xmlns:xlink="http://www.w3.org/1999/xlink" width="100" height="120" viewBox="0 0 100 120">
    <defs>
        <path id="a" d="M0 0h120v120H0z"/>
    </defs>
    <g fill="none" fill-rule="evenodd" transform="translate(-10)">
        <mask id="b" fill="#fff">
            <use xlink:href="#a"/>
        </mask>
        <use fill="#122028" fill-opacity="0" xlink:href="#a"/>
        <g mask="url(#b)">
            <g stroke="#FFF" stroke-width="1.5">
                <path d="M93.167.75H10.75v118.5h98.5V16.833H93.167V.75z"/>
                <path stroke-linejoin="round" d="M93.417.5L109.5 16.583"/>
            </g>
            <path stroke="#FFF" stroke-linejoin="round" stroke-width="1.5" d="M18 30h12V18H18zM18 52h12V40H18zM18 74h12V62H18zM18 96h12V84H18z"/>
            <path fill="#13BF99" d="M21 27h6v-6h-6zM21 49h6v-6h-6zM21 71h6v-6h-6zM21 93h6v-6h-6z"/>
            <g stroke="#13BF99" stroke-linecap="round" stroke-linejoin="round">
                <path d="M99.518 92.692h-6.751l3.375 5.908zM92.767 92.692h6.75l-3.375-5.907zM96.142 98.6h6.751l-3.375-5.908zM88.037 86.004l-3.375 5.907h6.751z"/>
                <path d="M84.662 91.911l3.375-5.907h-6.75zM91.413 91.911l3.376-5.907h-6.752zM76.542 92.71l3.375 5.907 3.376-5.907zM79.917 98.617l-3.375-5.907-3.376 5.907z"/>
                <path d="M83.293 92.71l-3.376-5.908-3.375 5.908zM88.027 112.805l3.375-5.907h-6.75z"/>
                <path d="M91.402 106.898l-3.375 5.907h6.75zM84.651 106.898l-3.375 5.907h6.75zM99.523 106.1l-3.376-5.908-3.376 5.907z"/>
                <path d="M96.147 100.192l3.375 5.908 3.376-5.908z"/>
                <path d="M92.771 106.1l3.376 5.907 3.375-5.908zM76.542 106.125h6.75l-3.375-5.908zM83.293 106.125h-6.751l3.375 5.907z"/>
                <path d="M79.917 100.218h-6.75l3.375 5.907z"/>
            </g>
            <text font-family="HelveticaNeue, Helvetica Neue" font-size="12" transform="translate(10)">
                <tspan x="26" y="29" fill="#FFF">Feasibility</tspan>
            </text>
            <text font-family="HelveticaNeue, Helvetica Neue" font-size="12" transform="translate(10)">
                <tspan x="26" y="50" fill="#FFF">Security</tspan>
            </text>
            <text font-family="HelveticaNeue, Helvetica Neue" font-size="12" transform="translate(10)">
                <tspan x="26" y="72" fill="#FFF">Legality</tspan>
            </text>
            <text font-family="HelveticaNeue, Helvetica Neue" font-size="12" transform="translate(10)">
                <tspan x="26" y="95" fill="#FFF">Team</tspan>
            </text>
        </g>
    </g>
</svg>
